<mxfile host="app.diagrams.net" agent="Mozilla/5.0 (Windows NT 10.0; Win64; x64; rv:144.0) Gecko/20100101 Firefox/144.0" version="28.2.8">
  <diagram name="Page-1" id="EYg3MqegUCzYYS_CXkTB">
    <mxGraphModel dx="1780" dy="449" grid="1" gridSize="10" guides="1" tooltips="1" connect="1" arrows="1" fold="1" page="1" pageScale="1" pageWidth="827" pageHeight="1169" math="0" shadow="0">
      <root>
        <mxCell id="0" />
        <mxCell id="1" parent="0" />
        <mxCell id="DrM0CufQLxGyzozMeJKn-306" value="&lt;p style=&quot;margin:0px;margin-top:6px;text-align:center;&quot;&gt;&lt;b&gt;Module Home&lt;/b&gt;&lt;/p&gt;&lt;hr size=&quot;1&quot; style=&quot;border-style:solid;&quot;&gt;&lt;p style=&quot;margin:0px;margin-left:8px;&quot;&gt;&lt;br&gt;&lt;/p&gt;" style="align=left;overflow=fill;html=1;dropTarget=0;whiteSpace=wrap;strokeColor=#0F8B8D;fontColor=#143642;fillColor=#FAE5C7;" vertex="1" parent="1">
          <mxGeometry x="160" y="10" width="590" height="200" as="geometry" />
        </mxCell>
        <mxCell id="DrM0CufQLxGyzozMeJKn-307" value="" style="shape=component;jettyWidth=8;jettyHeight=4;strokeColor=#0F8B8D;fontColor=#143642;fillColor=#FAE5C7;" vertex="1" parent="DrM0CufQLxGyzozMeJKn-306">
          <mxGeometry x="1" width="20" height="20" relative="1" as="geometry">
            <mxPoint x="-24" y="4" as="offset" />
          </mxGeometry>
        </mxCell>
        <mxCell id="DrM0CufQLxGyzozMeJKn-308" value="«controller»&lt;br&gt;&lt;b&gt;Home&lt;/b&gt;" style="html=1;dropTarget=0;whiteSpace=wrap;strokeColor=#0F8B8D;fontColor=#143642;fillColor=#FAE5C7;" vertex="1" parent="1">
          <mxGeometry x="190" y="65" width="180" height="90" as="geometry" />
        </mxCell>
        <mxCell id="DrM0CufQLxGyzozMeJKn-309" value="" style="shape=module;jettyWidth=8;jettyHeight=4;strokeColor=#0F8B8D;fontColor=#143642;fillColor=#FAE5C7;" vertex="1" parent="DrM0CufQLxGyzozMeJKn-308">
          <mxGeometry x="1" width="20" height="20" relative="1" as="geometry">
            <mxPoint x="-27" y="7" as="offset" />
          </mxGeometry>
        </mxCell>
        <mxCell id="DrM0CufQLxGyzozMeJKn-310" value="«repository»&lt;br&gt;&lt;b&gt;Training&lt;/b&gt;" style="html=1;dropTarget=0;whiteSpace=wrap;strokeColor=#0F8B8D;fontColor=#143642;fillColor=#FAE5C7;" vertex="1" parent="1">
          <mxGeometry x="520" y="65" width="180" height="90" as="geometry" />
        </mxCell>
        <mxCell id="DrM0CufQLxGyzozMeJKn-311" value="" style="shape=module;jettyWidth=8;jettyHeight=4;strokeColor=#0F8B8D;fontColor=#143642;fillColor=#FAE5C7;" vertex="1" parent="DrM0CufQLxGyzozMeJKn-310">
          <mxGeometry x="1" width="20" height="20" relative="1" as="geometry">
            <mxPoint x="-27" y="7" as="offset" />
          </mxGeometry>
        </mxCell>
        <mxCell id="DrM0CufQLxGyzozMeJKn-312" value="«class»&lt;br&gt;&lt;b&gt;Auth&lt;/b&gt;" style="html=1;dropTarget=0;whiteSpace=wrap;strokeColor=#0F8B8D;fontColor=#143642;fillColor=#FAE5C7;" vertex="1" parent="1">
          <mxGeometry x="-220" y="70" width="180" height="90" as="geometry" />
        </mxCell>
        <mxCell id="DrM0CufQLxGyzozMeJKn-313" value="" style="shape=module;jettyWidth=8;jettyHeight=4;strokeColor=#0F8B8D;fontColor=#143642;fillColor=#FAE5C7;" vertex="1" parent="DrM0CufQLxGyzozMeJKn-312">
          <mxGeometry x="1" width="20" height="20" relative="1" as="geometry">
            <mxPoint x="-27" y="7" as="offset" />
          </mxGeometry>
        </mxCell>
        <mxCell id="DrM0CufQLxGyzozMeJKn-314" value="POSTGRESQL" style="shape=cylinder3;whiteSpace=wrap;html=1;boundedLbl=1;backgroundOutline=1;size=15;strokeColor=#0F8B8D;fontColor=#143642;fillColor=#FAE5C7;" vertex="1" parent="1">
          <mxGeometry x="827" y="160" width="120" height="80" as="geometry" />
        </mxCell>
        <mxCell id="DrM0CufQLxGyzozMeJKn-315" value="&lt;p style=&quot;margin:0px;margin-top:6px;text-align:center;&quot;&gt;&lt;b&gt;Module Presence&lt;/b&gt;&lt;/p&gt;&lt;hr size=&quot;1&quot; style=&quot;border-style:solid;&quot;&gt;&lt;p style=&quot;margin:0px;margin-left:8px;&quot;&gt;&lt;br&gt;&lt;/p&gt;" style="align=left;overflow=fill;html=1;dropTarget=0;whiteSpace=wrap;strokeColor=#0F8B8D;fontColor=#143642;fillColor=#FAE5C7;" vertex="1" parent="1">
          <mxGeometry x="169" y="240" width="571" height="260" as="geometry" />
        </mxCell>
        <mxCell id="DrM0CufQLxGyzozMeJKn-316" value="" style="shape=component;jettyWidth=8;jettyHeight=4;strokeColor=#0F8B8D;fontColor=#143642;fillColor=#FAE5C7;" vertex="1" parent="DrM0CufQLxGyzozMeJKn-315">
          <mxGeometry x="1" width="20" height="20" relative="1" as="geometry">
            <mxPoint x="-24" y="4" as="offset" />
          </mxGeometry>
        </mxCell>
        <mxCell id="DrM0CufQLxGyzozMeJKn-317" value="«controller»&lt;br&gt;&lt;b&gt;Presence&lt;/b&gt;" style="html=1;dropTarget=0;whiteSpace=wrap;strokeColor=#0F8B8D;fontColor=#143642;fillColor=#FAE5C7;" vertex="1" parent="1">
          <mxGeometry x="199" y="295" width="180" height="90" as="geometry" />
        </mxCell>
        <mxCell id="DrM0CufQLxGyzozMeJKn-318" value="" style="shape=module;jettyWidth=8;jettyHeight=4;strokeColor=#0F8B8D;fontColor=#143642;fillColor=#FAE5C7;" vertex="1" parent="DrM0CufQLxGyzozMeJKn-317">
          <mxGeometry x="1" width="20" height="20" relative="1" as="geometry">
            <mxPoint x="-27" y="7" as="offset" />
          </mxGeometry>
        </mxCell>
        <mxCell id="DrM0CufQLxGyzozMeJKn-319" value="«repository»&lt;br&gt;&lt;b&gt;Pesence&lt;/b&gt;" style="html=1;dropTarget=0;whiteSpace=wrap;strokeColor=#0F8B8D;fontColor=#143642;fillColor=#FAE5C7;" vertex="1" parent="1">
          <mxGeometry x="516" y="295" width="180" height="90" as="geometry" />
        </mxCell>
        <mxCell id="DrM0CufQLxGyzozMeJKn-320" value="" style="shape=module;jettyWidth=8;jettyHeight=4;strokeColor=#0F8B8D;fontColor=#143642;fillColor=#FAE5C7;" vertex="1" parent="DrM0CufQLxGyzozMeJKn-319">
          <mxGeometry x="1" width="20" height="20" relative="1" as="geometry">
            <mxPoint x="-27" y="7" as="offset" />
          </mxGeometry>
        </mxCell>
        <mxCell id="DrM0CufQLxGyzozMeJKn-321" value="«class»&lt;br&gt;&lt;b&gt;Signature&lt;/b&gt;" style="html=1;dropTarget=0;whiteSpace=wrap;strokeColor=#0F8B8D;fontColor=#143642;fillColor=#FAE5C7;" vertex="1" parent="1">
          <mxGeometry x="315" y="400" width="180" height="90" as="geometry" />
        </mxCell>
        <mxCell id="DrM0CufQLxGyzozMeJKn-322" value="" style="shape=module;jettyWidth=8;jettyHeight=4;strokeColor=#0F8B8D;fontColor=#143642;fillColor=#FAE5C7;" vertex="1" parent="DrM0CufQLxGyzozMeJKn-321">
          <mxGeometry x="1" width="20" height="20" relative="1" as="geometry">
            <mxPoint x="-27" y="7" as="offset" />
          </mxGeometry>
        </mxCell>
        <mxCell id="DrM0CufQLxGyzozMeJKn-323" value="" style="html=1;rounded=0;strokeColor=#0F8B8D;fontColor=#143642;fillColor=#FAE5C7;" vertex="1" parent="1">
          <mxGeometry x="-40" y="110" width="30" height="30" as="geometry" />
        </mxCell>
        <mxCell id="DrM0CufQLxGyzozMeJKn-324" value="" style="endArrow=none;html=1;rounded=0;align=center;verticalAlign=top;endFill=0;labelBackgroundColor=none;endSize=2;strokeColor=#A8201A;fontColor=#143642;fillColor=#FAE5C7;" edge="1" source="DrM0CufQLxGyzozMeJKn-323" target="DrM0CufQLxGyzozMeJKn-325" parent="1">
          <mxGeometry relative="1" as="geometry" />
        </mxCell>
        <mxCell id="DrM0CufQLxGyzozMeJKn-325" value="" style="ellipse;html=1;fontSize=11;align=center;fillColor=none;points=[];aspect=fixed;resizable=0;verticalAlign=bottom;labelPosition=center;verticalLabelPosition=top;flipH=1;strokeColor=#0F8B8D;fontColor=#143642;" vertex="1" parent="1">
          <mxGeometry x="12" y="121" width="8" height="8" as="geometry" />
        </mxCell>
        <mxCell id="DrM0CufQLxGyzozMeJKn-326" value="" style="html=1;rounded=0;strokeColor=#0F8B8D;fontColor=#143642;fillColor=#FAE5C7;" vertex="1" parent="1">
          <mxGeometry x="130" y="99" width="30" height="30" as="geometry" />
        </mxCell>
        <mxCell id="DrM0CufQLxGyzozMeJKn-327" value="" style="endArrow=none;html=1;rounded=0;align=center;verticalAlign=top;endFill=0;labelBackgroundColor=none;endSize=2;strokeColor=#A8201A;fontColor=#143642;fillColor=#FAE5C7;" edge="1" source="DrM0CufQLxGyzozMeJKn-326" target="DrM0CufQLxGyzozMeJKn-328" parent="1">
          <mxGeometry relative="1" as="geometry" />
        </mxCell>
        <mxCell id="DrM0CufQLxGyzozMeJKn-328" value="" style="shape=requiredInterface;html=1;fontSize=11;align=center;fillColor=none;points=[];aspect=fixed;resizable=0;verticalAlign=bottom;labelPosition=center;verticalLabelPosition=top;flipH=1;strokeColor=#0F8B8D;fontColor=#143642;rotation=-155;" vertex="1" parent="1">
          <mxGeometry x="20" y="119" width="5" height="10" as="geometry" />
        </mxCell>
        <mxCell id="DrM0CufQLxGyzozMeJKn-329" value="" style="html=1;rounded=0;strokeColor=#0F8B8D;fontColor=#143642;fillColor=#FAE5C7;" vertex="1" parent="1">
          <mxGeometry x="490" y="100" width="30" height="30" as="geometry" />
        </mxCell>
        <mxCell id="DrM0CufQLxGyzozMeJKn-330" value="" style="endArrow=none;html=1;rounded=0;align=center;verticalAlign=top;endFill=0;labelBackgroundColor=none;endSize=2;strokeColor=#A8201A;fontColor=#143642;fillColor=#FAE5C7;" edge="1" source="DrM0CufQLxGyzozMeJKn-329" target="DrM0CufQLxGyzozMeJKn-331" parent="1">
          <mxGeometry relative="1" as="geometry" />
        </mxCell>
        <mxCell id="DrM0CufQLxGyzozMeJKn-331" value="" style="ellipse;html=1;fontSize=11;align=center;fillColor=none;points=[];aspect=fixed;resizable=0;verticalAlign=bottom;labelPosition=center;verticalLabelPosition=top;flipH=1;strokeColor=#0F8B8D;fontColor=#143642;" vertex="1" parent="1">
          <mxGeometry x="440" y="110" width="8" height="8" as="geometry" />
        </mxCell>
        <mxCell id="DrM0CufQLxGyzozMeJKn-332" value="" style="html=1;rounded=0;strokeColor=#0F8B8D;fontColor=#143642;fillColor=#FAE5C7;" vertex="1" parent="1">
          <mxGeometry x="375" y="100" width="30" height="30" as="geometry" />
        </mxCell>
        <mxCell id="DrM0CufQLxGyzozMeJKn-333" value="" style="endArrow=none;html=1;rounded=0;align=center;verticalAlign=top;endFill=0;labelBackgroundColor=none;endSize=2;strokeColor=#A8201A;fontColor=#143642;fillColor=#FAE5C7;" edge="1" source="DrM0CufQLxGyzozMeJKn-332" target="DrM0CufQLxGyzozMeJKn-334" parent="1">
          <mxGeometry relative="1" as="geometry" />
        </mxCell>
        <mxCell id="DrM0CufQLxGyzozMeJKn-334" value="" style="shape=requiredInterface;html=1;fontSize=11;align=center;fillColor=none;points=[];aspect=fixed;resizable=0;verticalAlign=bottom;labelPosition=center;verticalLabelPosition=top;flipH=1;strokeColor=#0F8B8D;fontColor=#143642;" vertex="1" parent="1">
          <mxGeometry x="430" y="110" width="5" height="10" as="geometry" />
        </mxCell>
        <mxCell id="DrM0CufQLxGyzozMeJKn-335" value="" style="html=1;rounded=0;strokeColor=#0F8B8D;fontColor=#143642;fillColor=#FAE5C7;" vertex="1" parent="1">
          <mxGeometry x="880" y="130" width="30" height="30" as="geometry" />
        </mxCell>
        <mxCell id="DrM0CufQLxGyzozMeJKn-336" value="" style="endArrow=none;html=1;rounded=0;align=center;verticalAlign=top;endFill=0;labelBackgroundColor=none;endSize=2;strokeColor=#A8201A;fontColor=#143642;fillColor=#FAE5C7;" edge="1" source="DrM0CufQLxGyzozMeJKn-335" target="DrM0CufQLxGyzozMeJKn-337" parent="1">
          <mxGeometry relative="1" as="geometry" />
        </mxCell>
        <mxCell id="DrM0CufQLxGyzozMeJKn-337" value="" style="ellipse;html=1;fontSize=11;align=center;fillColor=none;points=[];aspect=fixed;resizable=0;verticalAlign=bottom;labelPosition=center;verticalLabelPosition=top;flipH=1;strokeColor=#0F8B8D;fontColor=#143642;" vertex="1" parent="1">
          <mxGeometry x="891" y="102" width="8" height="8" as="geometry" />
        </mxCell>
        <mxCell id="DrM0CufQLxGyzozMeJKn-338" value="" style="html=1;rounded=0;strokeColor=#0F8B8D;fontColor=#143642;fillColor=#FAE5C7;" vertex="1" parent="1">
          <mxGeometry x="700" y="95" width="30" height="30" as="geometry" />
        </mxCell>
        <mxCell id="DrM0CufQLxGyzozMeJKn-339" value="" style="endArrow=none;html=1;rounded=0;align=center;verticalAlign=top;endFill=0;labelBackgroundColor=none;endSize=2;strokeColor=#A8201A;fontColor=#143642;fillColor=#FAE5C7;" edge="1" source="DrM0CufQLxGyzozMeJKn-338" target="DrM0CufQLxGyzozMeJKn-340" parent="1">
          <mxGeometry relative="1" as="geometry" />
        </mxCell>
        <mxCell id="DrM0CufQLxGyzozMeJKn-340" value="" style="shape=requiredInterface;html=1;fontSize=11;align=center;fillColor=none;points=[];aspect=fixed;resizable=0;verticalAlign=bottom;labelPosition=center;verticalLabelPosition=top;flipH=1;strokeColor=#0F8B8D;fontColor=#143642;" vertex="1" parent="1">
          <mxGeometry x="884.5" y="99" width="5" height="10" as="geometry" />
        </mxCell>
        <mxCell id="DrM0CufQLxGyzozMeJKn-341" value="5432" style="text;html=1;whiteSpace=wrap;strokeColor=none;fillColor=none;align=center;verticalAlign=middle;rounded=0;fontColor=#143642;" vertex="1" parent="1">
          <mxGeometry x="910" y="130" width="60" height="30" as="geometry" />
        </mxCell>
        <mxCell id="DrM0CufQLxGyzozMeJKn-342" value="NFS" style="shape=cylinder3;whiteSpace=wrap;html=1;boundedLbl=1;backgroundOutline=1;size=15;strokeColor=#0F8B8D;fontColor=#143642;fillColor=#FAE5C7;" vertex="1" parent="1">
          <mxGeometry x="-85" y="350" width="120" height="80" as="geometry" />
        </mxCell>
        <mxCell id="DrM0CufQLxGyzozMeJKn-343" value="" style="html=1;rounded=0;strokeColor=#0F8B8D;fontColor=#143642;fillColor=#FAE5C7;" vertex="1" parent="1">
          <mxGeometry x="-35" y="320" width="30" height="30" as="geometry" />
        </mxCell>
        <mxCell id="DrM0CufQLxGyzozMeJKn-344" value="" style="endArrow=none;html=1;rounded=0;align=center;verticalAlign=top;endFill=0;labelBackgroundColor=none;endSize=2;strokeColor=#A8201A;fontColor=#143642;fillColor=#FAE5C7;" edge="1" source="DrM0CufQLxGyzozMeJKn-343" target="DrM0CufQLxGyzozMeJKn-345" parent="1">
          <mxGeometry relative="1" as="geometry" />
        </mxCell>
        <mxCell id="DrM0CufQLxGyzozMeJKn-345" value="" style="ellipse;html=1;fontSize=11;align=center;fillColor=none;points=[];aspect=fixed;resizable=0;verticalAlign=bottom;labelPosition=center;verticalLabelPosition=top;flipH=1;strokeColor=#0F8B8D;fontColor=#143642;" vertex="1" parent="1">
          <mxGeometry x="12" y="331" width="8" height="8" as="geometry" />
        </mxCell>
        <mxCell id="DrM0CufQLxGyzozMeJKn-346" value="111" style="text;html=1;whiteSpace=wrap;strokeColor=none;fillColor=none;align=center;verticalAlign=middle;rounded=0;fontColor=#143642;" vertex="1" parent="1">
          <mxGeometry x="-5" y="290" width="60" height="30" as="geometry" />
        </mxCell>
        <mxCell id="DrM0CufQLxGyzozMeJKn-347" value="" style="html=1;rounded=0;strokeColor=#0F8B8D;fontColor=#143642;fillColor=#FAE5C7;" vertex="1" parent="1">
          <mxGeometry x="280" y="440" width="30" height="30" as="geometry" />
        </mxCell>
        <mxCell id="DrM0CufQLxGyzozMeJKn-348" value="" style="endArrow=none;html=1;rounded=0;align=center;verticalAlign=top;endFill=0;labelBackgroundColor=none;endSize=2;strokeColor=#A8201A;fontColor=#143642;fillColor=#FAE5C7;" edge="1" source="DrM0CufQLxGyzozMeJKn-347" parent="1">
          <mxGeometry relative="1" as="geometry">
            <mxPoint x="30" y="340" as="targetPoint" />
          </mxGeometry>
        </mxCell>
        <mxCell id="DrM0CufQLxGyzozMeJKn-349" value="" style="shape=requiredInterface;html=1;fontSize=11;align=center;fillColor=none;points=[];aspect=fixed;resizable=0;verticalAlign=bottom;labelPosition=center;verticalLabelPosition=top;flipH=1;strokeColor=#0F8B8D;fontColor=#143642;rotation=-150;" vertex="1" parent="1">
          <mxGeometry x="23" y="329" width="5" height="10" as="geometry" />
        </mxCell>
        <mxCell id="DrM0CufQLxGyzozMeJKn-350" value="" style="html=1;rounded=0;strokeColor=#0F8B8D;fontColor=#143642;fillColor=#FAE5C7;" vertex="1" parent="1">
          <mxGeometry x="486" y="329" width="30" height="30" as="geometry" />
        </mxCell>
        <mxCell id="DrM0CufQLxGyzozMeJKn-351" value="" style="endArrow=none;html=1;rounded=0;align=center;verticalAlign=top;endFill=0;labelBackgroundColor=none;endSize=2;strokeColor=#A8201A;fontColor=#143642;fillColor=#FAE5C7;" edge="1" source="DrM0CufQLxGyzozMeJKn-350" target="DrM0CufQLxGyzozMeJKn-352" parent="1">
          <mxGeometry relative="1" as="geometry" />
        </mxCell>
        <mxCell id="DrM0CufQLxGyzozMeJKn-352" value="" style="ellipse;html=1;fontSize=11;align=center;fillColor=none;points=[];aspect=fixed;resizable=0;verticalAlign=bottom;labelPosition=center;verticalLabelPosition=top;flipH=1;strokeColor=#0F8B8D;fontColor=#143642;" vertex="1" parent="1">
          <mxGeometry x="450.5" y="339" width="8" height="8" as="geometry" />
        </mxCell>
        <mxCell id="DrM0CufQLxGyzozMeJKn-353" value="" style="html=1;rounded=0;strokeColor=#0F8B8D;fontColor=#143642;fillColor=#FAE5C7;" vertex="1" parent="1">
          <mxGeometry x="388" y="331" width="30" height="30" as="geometry" />
        </mxCell>
        <mxCell id="DrM0CufQLxGyzozMeJKn-354" value="" style="endArrow=none;html=1;rounded=0;align=center;verticalAlign=top;endFill=0;labelBackgroundColor=none;endSize=2;strokeColor=#A8201A;fontColor=#143642;fillColor=#FAE5C7;" edge="1" source="DrM0CufQLxGyzozMeJKn-353" target="DrM0CufQLxGyzozMeJKn-355" parent="1">
          <mxGeometry relative="1" as="geometry" />
        </mxCell>
        <mxCell id="DrM0CufQLxGyzozMeJKn-355" value="" style="shape=requiredInterface;html=1;fontSize=11;align=center;fillColor=none;points=[];aspect=fixed;resizable=0;verticalAlign=bottom;labelPosition=center;verticalLabelPosition=top;flipH=1;strokeColor=#0F8B8D;fontColor=#143642;" vertex="1" parent="1">
          <mxGeometry x="443" y="341" width="5" height="10" as="geometry" />
        </mxCell>
        <mxCell id="DrM0CufQLxGyzozMeJKn-356" value="" style="html=1;rounded=0;strokeColor=#0F8B8D;fontColor=#143642;fillColor=#FAE5C7;" vertex="1" parent="1">
          <mxGeometry x="696" y="325" width="30" height="30" as="geometry" />
        </mxCell>
        <mxCell id="DrM0CufQLxGyzozMeJKn-357" value="" style="endArrow=none;html=1;rounded=0;align=center;verticalAlign=top;endFill=0;labelBackgroundColor=none;endSize=2;strokeColor=#A8201A;fontColor=#143642;fillColor=#FAE5C7;" edge="1" source="DrM0CufQLxGyzozMeJKn-356" target="DrM0CufQLxGyzozMeJKn-358" parent="1">
          <mxGeometry relative="1" as="geometry" />
        </mxCell>
        <mxCell id="DrM0CufQLxGyzozMeJKn-358" value="" style="shape=requiredInterface;html=1;fontSize=11;align=center;fillColor=none;points=[];aspect=fixed;resizable=0;verticalAlign=bottom;labelPosition=center;verticalLabelPosition=top;flipH=1;strokeColor=#0F8B8D;fontColor=#143642;" vertex="1" parent="1">
          <mxGeometry x="886" y="111" width="5" height="10" as="geometry" />
        </mxCell>
        <mxCell id="DrM0CufQLxGyzozMeJKn-359" value="" style="html=1;rounded=0;strokeColor=#0F8B8D;fontColor=#143642;fillColor=#FAE5C7;" vertex="1" parent="1">
          <mxGeometry x="495" y="440" width="30" height="30" as="geometry" />
        </mxCell>
        <mxCell id="DrM0CufQLxGyzozMeJKn-360" value="" style="endArrow=none;html=1;rounded=0;align=center;verticalAlign=top;endFill=0;labelBackgroundColor=none;endSize=2;strokeColor=#A8201A;fontColor=#143642;fillColor=#FAE5C7;" edge="1" source="DrM0CufQLxGyzozMeJKn-359" target="DrM0CufQLxGyzozMeJKn-361" parent="1">
          <mxGeometry relative="1" as="geometry" />
        </mxCell>
        <mxCell id="DrM0CufQLxGyzozMeJKn-361" value="" style="ellipse;html=1;fontSize=11;align=center;fillColor=none;points=[];aspect=fixed;resizable=0;verticalAlign=bottom;labelPosition=center;verticalLabelPosition=top;flipH=1;strokeColor=#0F8B8D;fontColor=#143642;" vertex="1" parent="1">
          <mxGeometry x="547" y="451" width="8" height="8" as="geometry" />
        </mxCell>
        <mxCell id="DrM0CufQLxGyzozMeJKn-364" value="" style="html=1;rounded=0;strokeColor=#0F8B8D;fontColor=#143642;fillColor=#FAE5C7;" vertex="1" parent="1">
          <mxGeometry x="386.5" y="331" width="30" height="30" as="geometry" />
        </mxCell>
        <mxCell id="DrM0CufQLxGyzozMeJKn-365" value="" style="endArrow=none;html=1;rounded=0;align=center;verticalAlign=top;endFill=0;labelBackgroundColor=none;endSize=2;strokeColor=#A8201A;fontColor=#143642;fillColor=#FAE5C7;" edge="1" source="DrM0CufQLxGyzozMeJKn-364" target="DrM0CufQLxGyzozMeJKn-366" parent="1">
          <mxGeometry relative="1" as="geometry" />
        </mxCell>
        <mxCell id="DrM0CufQLxGyzozMeJKn-366" value="" style="shape=requiredInterface;html=1;fontSize=11;align=center;fillColor=none;points=[];aspect=fixed;resizable=0;verticalAlign=bottom;labelPosition=center;verticalLabelPosition=top;flipH=1;strokeColor=#0F8B8D;fontColor=#143642;" vertex="1" parent="1">
          <mxGeometry x="547" y="451" width="5" height="10" as="geometry" />
        </mxCell>
      </root>
    </mxGraphModel>
  </diagram>
</mxfile>
